<!DOCTYPE svg PUBLIC "-//W3C//DTD SVG 1.1//EN" "http://www.w3.org/Graphics/SVG/1.1/DTD/svg11.dtd">
<!-- Uploaded to: SVG Repo, www.svgrepo.com, Transformed by: SVG Repo Mixer Tools -->
<svg fill="#000000" version="1.1" id="Capa_1" xmlns="http://www.w3.org/2000/svg" xmlns:xlink="http://www.w3.org/1999/xlink" width="800px" height="800px" viewBox="-2.23 -2.23 60.29 60.29" xml:space="preserve" stroke="#000000" stroke-width="1.5632960000000002">
<g id="SVGRepo_bgCarrier" stroke-width="0"/>
<g id="SVGRepo_tracerCarrier" stroke-linecap="round" stroke-linejoin="round"/>
<g id="SVGRepo_iconCarrier"> <g> <g> <g> <path d="M9.166,41.832H6.669C2.991,41.832,0,38.84,0,35.163V11.835c0-3.678,2.992-6.669,6.669-6.669h34.328 c3.678,0,6.669,2.992,6.669,6.669v3.164c0,0.552-0.448,1-1,1H14.835c-2.575,0-4.669,2.095-4.669,4.669v20.164 C10.166,41.385,9.718,41.832,9.166,41.832z M6.669,7.166C4.094,7.166,2,9.261,2,11.835v23.328c0,2.575,2.095,4.669,4.669,4.669 h1.497V20.669c0-3.678,2.992-6.669,6.669-6.669h30.831v-2.164c0-2.575-2.096-4.669-4.669-4.669H6.669V7.166z"/> </g> <g> <path d="M49.163,50.666H14.835c-3.678,0-6.669-2.992-6.669-6.669V20.669c0-3.678,2.992-6.669,6.669-6.669h34.328 c3.678,0,6.669,2.992,6.669,6.669v23.328C55.832,47.674,52.84,50.666,49.163,50.666z M14.835,15.999 c-2.575,0-4.669,2.095-4.669,4.669v23.328c0,2.575,2.095,4.669,4.669,4.669h34.328c2.575,0,4.669-2.095,4.669-4.669V20.669 c0-2.575-2.096-4.669-4.669-4.669L14.835,15.999L14.835,15.999z"/> </g> </g> </g> </g>
</svg>